<mxfile host="app.diagrams.net" modified="2023-06-26T07:41:29.592Z" agent="Mozilla/5.0 (Windows NT 10.0; Win64; x64) AppleWebKit/537.36 (KHTML, like Gecko) Chrome/114.0.0.0 Safari/537.36" etag="X30m5VvrXrsguM0ryDkA" version="21.5.0" type="github">
  <diagram name="PÃ¡gina-1" id="_m529eDKK7JrBdHKqTtA">
    <mxGraphModel dx="4836" dy="2080" grid="0" gridSize="10" guides="1" tooltips="1" connect="1" arrows="1" fold="1" page="0" pageScale="1" pageWidth="827" pageHeight="1169" math="0" shadow="0">
      <root>
        <mxCell id="0" />
        <mxCell id="1" parent="0" />
        <mxCell id="LFbB79-AIs5pltMv2B3R-155" value="Personal" style="swimlane;childLayout=stackLayout;horizontal=1;startSize=50;horizontalStack=0;rounded=1;fontSize=14;fontStyle=0;strokeWidth=2;resizeParent=0;resizeLast=1;shadow=0;dashed=0;align=center;arcSize=4;whiteSpace=wrap;html=1;" vertex="1" parent="1">
          <mxGeometry x="-67" y="200" width="160" height="155" as="geometry" />
        </mxCell>
        <mxCell id="LFbB79-AIs5pltMv2B3R-156" value="+id&lt;br&gt;+nome&lt;br&gt;+CPF&lt;br&gt;+email&lt;br&gt;+senha&lt;br&gt;+telefone&lt;br&gt;&amp;nbsp;&lt;br&gt;" style="align=left;strokeColor=none;fillColor=none;spacingLeft=4;fontSize=12;verticalAlign=top;resizable=0;rotatable=0;part=1;html=1;" vertex="1" parent="LFbB79-AIs5pltMv2B3R-155">
          <mxGeometry y="50" width="160" height="105" as="geometry" />
        </mxCell>
        <mxCell id="LFbB79-AIs5pltMv2B3R-161" value="Aluno" style="swimlane;childLayout=stackLayout;horizontal=1;startSize=50;horizontalStack=0;rounded=1;fontSize=14;fontStyle=0;strokeWidth=2;resizeParent=0;resizeLast=1;shadow=0;dashed=0;align=center;arcSize=4;whiteSpace=wrap;html=1;" vertex="1" parent="1">
          <mxGeometry x="-743" y="200" width="160" height="175" as="geometry" />
        </mxCell>
        <mxCell id="LFbB79-AIs5pltMv2B3R-162" value="+id&lt;br&gt;+nome&lt;br&gt;+CPF&lt;br&gt;+email&lt;br&gt;+senha&lt;br&gt;+telefone&lt;br&gt;+idade&amp;nbsp;" style="align=left;strokeColor=none;fillColor=none;spacingLeft=4;fontSize=12;verticalAlign=top;resizable=0;rotatable=0;part=1;html=1;" vertex="1" parent="LFbB79-AIs5pltMv2B3R-161">
          <mxGeometry y="50" width="160" height="125" as="geometry" />
        </mxCell>
        <mxCell id="LFbB79-AIs5pltMv2B3R-164" value="Agendamento" style="swimlane;childLayout=stackLayout;horizontal=1;startSize=50;horizontalStack=0;rounded=1;fontSize=14;fontStyle=0;strokeWidth=2;resizeParent=0;resizeLast=1;shadow=0;dashed=0;align=center;arcSize=4;whiteSpace=wrap;html=1;" vertex="1" parent="1">
          <mxGeometry x="-450" y="226.5" width="160" height="122" as="geometry" />
        </mxCell>
        <mxCell id="LFbB79-AIs5pltMv2B3R-165" value="+id&lt;br&gt;+data&lt;br&gt;+hora_inicial&lt;br&gt;+hora_final" style="align=left;strokeColor=none;fillColor=none;spacingLeft=4;fontSize=12;verticalAlign=top;resizable=0;rotatable=0;part=1;html=1;" vertex="1" parent="LFbB79-AIs5pltMv2B3R-164">
          <mxGeometry y="50" width="160" height="72" as="geometry" />
        </mxCell>
        <mxCell id="LFbB79-AIs5pltMv2B3R-166" value="Financeiro" style="swimlane;childLayout=stackLayout;horizontal=1;startSize=50;horizontalStack=0;rounded=1;fontSize=14;fontStyle=0;strokeWidth=2;resizeParent=0;resizeLast=1;shadow=0;dashed=0;align=center;arcSize=4;whiteSpace=wrap;html=1;" vertex="1" parent="1">
          <mxGeometry x="-743" y="484" width="160" height="129" as="geometry" />
        </mxCell>
        <mxCell id="LFbB79-AIs5pltMv2B3R-167" value="+id&lt;br&gt;+valor&lt;br&gt;+data_vencimento&lt;br&gt;+data_pagamento" style="align=left;strokeColor=none;fillColor=none;spacingLeft=4;fontSize=12;verticalAlign=top;resizable=0;rotatable=0;part=1;html=1;" vertex="1" parent="LFbB79-AIs5pltMv2B3R-166">
          <mxGeometry y="50" width="160" height="79" as="geometry" />
        </mxCell>
        <mxCell id="LFbB79-AIs5pltMv2B3R-168" value="Situacao" style="swimlane;childLayout=stackLayout;horizontal=1;startSize=50;horizontalStack=0;rounded=1;fontSize=14;fontStyle=0;strokeWidth=2;resizeParent=0;resizeLast=1;shadow=0;dashed=0;align=center;arcSize=4;whiteSpace=wrap;html=1;" vertex="1" parent="1">
          <mxGeometry x="-1004" y="502" width="160" height="93" as="geometry" />
        </mxCell>
        <mxCell id="LFbB79-AIs5pltMv2B3R-169" value="+id&lt;br&gt;+descricao" style="align=left;strokeColor=none;fillColor=none;spacingLeft=4;fontSize=12;verticalAlign=top;resizable=0;rotatable=0;part=1;html=1;" vertex="1" parent="LFbB79-AIs5pltMv2B3R-168">
          <mxGeometry y="50" width="160" height="43" as="geometry" />
        </mxCell>
        <mxCell id="LFbB79-AIs5pltMv2B3R-172" value="Treino" style="swimlane;childLayout=stackLayout;horizontal=1;startSize=50;horizontalStack=0;rounded=1;fontSize=14;fontStyle=0;strokeWidth=2;resizeParent=0;resizeLast=1;shadow=0;dashed=0;align=center;arcSize=4;whiteSpace=wrap;html=1;" vertex="1" parent="1">
          <mxGeometry x="-524" y="-5" width="160" height="93" as="geometry" />
        </mxCell>
        <mxCell id="LFbB79-AIs5pltMv2B3R-173" value="+id&lt;br&gt;+descricao" style="align=left;strokeColor=none;fillColor=none;spacingLeft=4;fontSize=12;verticalAlign=top;resizable=0;rotatable=0;part=1;html=1;" vertex="1" parent="LFbB79-AIs5pltMv2B3R-172">
          <mxGeometry y="50" width="160" height="43" as="geometry" />
        </mxCell>
        <mxCell id="LFbB79-AIs5pltMv2B3R-180" value="" style="endArrow=none;html=1;rounded=0;fontSize=12;startSize=8;endSize=8;curved=1;exitX=1;exitY=0.5;exitDx=0;exitDy=0;entryX=0;entryY=0.5;entryDx=0;entryDy=0;" edge="1" parent="1" source="LFbB79-AIs5pltMv2B3R-162" target="LFbB79-AIs5pltMv2B3R-165">
          <mxGeometry relative="1" as="geometry">
            <mxPoint x="-329" y="439" as="sourcePoint" />
            <mxPoint x="-169" y="439" as="targetPoint" />
          </mxGeometry>
        </mxCell>
        <mxCell id="LFbB79-AIs5pltMv2B3R-181" value="1,1" style="resizable=0;html=1;whiteSpace=wrap;align=left;verticalAlign=bottom;fontSize=16;" connectable="0" vertex="1" parent="LFbB79-AIs5pltMv2B3R-180">
          <mxGeometry x="-1" relative="1" as="geometry" />
        </mxCell>
        <mxCell id="LFbB79-AIs5pltMv2B3R-182" value="0,N" style="resizable=0;html=1;whiteSpace=wrap;align=right;verticalAlign=bottom;fontSize=16;" connectable="0" vertex="1" parent="LFbB79-AIs5pltMv2B3R-180">
          <mxGeometry x="1" relative="1" as="geometry" />
        </mxCell>
        <mxCell id="LFbB79-AIs5pltMv2B3R-183" value="" style="endArrow=none;html=1;rounded=0;fontSize=12;startSize=8;endSize=8;curved=1;exitX=1;exitY=0.5;exitDx=0;exitDy=0;entryX=-0.01;entryY=0.575;entryDx=0;entryDy=0;entryPerimeter=0;" edge="1" parent="1" source="LFbB79-AIs5pltMv2B3R-165" target="LFbB79-AIs5pltMv2B3R-156">
          <mxGeometry relative="1" as="geometry">
            <mxPoint x="-298" y="431" as="sourcePoint" />
            <mxPoint x="-23" y="430" as="targetPoint" />
          </mxGeometry>
        </mxCell>
        <mxCell id="LFbB79-AIs5pltMv2B3R-184" value="0,N" style="resizable=0;html=1;whiteSpace=wrap;align=left;verticalAlign=bottom;fontSize=16;" connectable="0" vertex="1" parent="LFbB79-AIs5pltMv2B3R-183">
          <mxGeometry x="-1" relative="1" as="geometry" />
        </mxCell>
        <mxCell id="LFbB79-AIs5pltMv2B3R-185" value="1,1" style="resizable=0;html=1;whiteSpace=wrap;align=right;verticalAlign=bottom;fontSize=16;" connectable="0" vertex="1" parent="LFbB79-AIs5pltMv2B3R-183">
          <mxGeometry x="1" relative="1" as="geometry" />
        </mxCell>
        <mxCell id="LFbB79-AIs5pltMv2B3R-192" value="" style="endArrow=none;html=1;rounded=0;fontSize=12;startSize=8;endSize=8;curved=1;entryX=0.75;entryY=1;entryDx=0;entryDy=0;exitX=0.5;exitY=0;exitDx=0;exitDy=0;" edge="1" parent="1" source="LFbB79-AIs5pltMv2B3R-164" target="LFbB79-AIs5pltMv2B3R-173">
          <mxGeometry relative="1" as="geometry">
            <mxPoint x="-353" y="144" as="sourcePoint" />
            <mxPoint x="-132" y="447" as="targetPoint" />
          </mxGeometry>
        </mxCell>
        <mxCell id="LFbB79-AIs5pltMv2B3R-193" value="0,N" style="resizable=0;html=1;whiteSpace=wrap;align=left;verticalAlign=bottom;fontSize=16;" connectable="0" vertex="1" parent="LFbB79-AIs5pltMv2B3R-192">
          <mxGeometry x="-1" relative="1" as="geometry" />
        </mxCell>
        <mxCell id="LFbB79-AIs5pltMv2B3R-194" value="1,N" style="resizable=0;html=1;whiteSpace=wrap;align=right;verticalAlign=bottom;fontSize=16;" connectable="0" vertex="1" parent="LFbB79-AIs5pltMv2B3R-192">
          <mxGeometry x="1" relative="1" as="geometry" />
        </mxCell>
        <mxCell id="LFbB79-AIs5pltMv2B3R-195" value="" style="endArrow=none;html=1;rounded=0;fontSize=12;startSize=8;endSize=8;curved=1;exitX=1;exitY=0.5;exitDx=0;exitDy=0;entryX=0;entryY=0.5;entryDx=0;entryDy=0;" edge="1" parent="1" source="LFbB79-AIs5pltMv2B3R-169" target="LFbB79-AIs5pltMv2B3R-167">
          <mxGeometry relative="1" as="geometry">
            <mxPoint x="-358" y="442" as="sourcePoint" />
            <mxPoint x="-198" y="442" as="targetPoint" />
          </mxGeometry>
        </mxCell>
        <mxCell id="LFbB79-AIs5pltMv2B3R-196" value="1,1" style="resizable=0;html=1;whiteSpace=wrap;align=left;verticalAlign=bottom;fontSize=16;" connectable="0" vertex="1" parent="LFbB79-AIs5pltMv2B3R-195">
          <mxGeometry x="-1" relative="1" as="geometry" />
        </mxCell>
        <mxCell id="LFbB79-AIs5pltMv2B3R-197" value="0,N" style="resizable=0;html=1;whiteSpace=wrap;align=right;verticalAlign=bottom;fontSize=16;" connectable="0" vertex="1" parent="LFbB79-AIs5pltMv2B3R-195">
          <mxGeometry x="1" relative="1" as="geometry" />
        </mxCell>
        <mxCell id="LFbB79-AIs5pltMv2B3R-198" value="" style="endArrow=none;html=1;rounded=0;fontSize=12;startSize=8;endSize=8;curved=1;exitX=0.5;exitY=1;exitDx=0;exitDy=0;entryX=0.5;entryY=0;entryDx=0;entryDy=0;" edge="1" parent="1" source="LFbB79-AIs5pltMv2B3R-162" target="LFbB79-AIs5pltMv2B3R-166">
          <mxGeometry relative="1" as="geometry">
            <mxPoint x="-393" y="590" as="sourcePoint" />
            <mxPoint x="-233" y="590" as="targetPoint" />
          </mxGeometry>
        </mxCell>
        <mxCell id="LFbB79-AIs5pltMv2B3R-199" value="1,N" style="resizable=0;html=1;whiteSpace=wrap;align=left;verticalAlign=bottom;fontSize=16;" connectable="0" vertex="1" parent="LFbB79-AIs5pltMv2B3R-198">
          <mxGeometry x="-1" relative="1" as="geometry" />
        </mxCell>
        <mxCell id="LFbB79-AIs5pltMv2B3R-200" value="1,N" style="resizable=0;html=1;whiteSpace=wrap;align=right;verticalAlign=bottom;fontSize=16;" connectable="0" vertex="1" parent="LFbB79-AIs5pltMv2B3R-198">
          <mxGeometry x="1" relative="1" as="geometry" />
        </mxCell>
        <mxCell id="LFbB79-AIs5pltMv2B3R-207" value="Gestor" style="swimlane;childLayout=stackLayout;horizontal=1;startSize=50;horizontalStack=0;rounded=1;fontSize=14;fontStyle=0;strokeWidth=2;resizeParent=0;resizeLast=1;shadow=0;dashed=0;align=center;arcSize=4;whiteSpace=wrap;html=1;" vertex="1" parent="1">
          <mxGeometry x="-57" y="471" width="160" height="155" as="geometry" />
        </mxCell>
        <mxCell id="LFbB79-AIs5pltMv2B3R-208" value="+id&lt;br&gt;+nome&lt;br&gt;+CPF&lt;br&gt;+email&lt;br&gt;+senha&lt;br&gt;+telefone&lt;br&gt;&amp;nbsp;&lt;br&gt;" style="align=left;strokeColor=none;fillColor=none;spacingLeft=4;fontSize=12;verticalAlign=top;resizable=0;rotatable=0;part=1;html=1;" vertex="1" parent="LFbB79-AIs5pltMv2B3R-207">
          <mxGeometry y="50" width="160" height="105" as="geometry" />
        </mxCell>
        <mxCell id="LFbB79-AIs5pltMv2B3R-209" value="Relatorio" style="swimlane;childLayout=stackLayout;horizontal=1;startSize=50;horizontalStack=0;rounded=1;fontSize=14;fontStyle=0;strokeWidth=2;resizeParent=0;resizeLast=1;shadow=0;dashed=0;align=center;arcSize=4;whiteSpace=wrap;html=1;" vertex="1" parent="1">
          <mxGeometry x="-450" y="504" width="160" height="93" as="geometry" />
        </mxCell>
        <mxCell id="LFbB79-AIs5pltMv2B3R-210" value="+id&lt;br&gt;+tipoRelatorio" style="align=left;strokeColor=none;fillColor=none;spacingLeft=4;fontSize=12;verticalAlign=top;resizable=0;rotatable=0;part=1;html=1;" vertex="1" parent="LFbB79-AIs5pltMv2B3R-209">
          <mxGeometry y="50" width="160" height="43" as="geometry" />
        </mxCell>
        <mxCell id="LFbB79-AIs5pltMv2B3R-212" value="" style="endArrow=none;html=1;rounded=0;fontSize=12;startSize=8;endSize=8;curved=1;entryX=0;entryY=0;entryDx=0;entryDy=0;exitX=1;exitY=0.25;exitDx=0;exitDy=0;" edge="1" parent="1" source="LFbB79-AIs5pltMv2B3R-167" target="LFbB79-AIs5pltMv2B3R-210">
          <mxGeometry relative="1" as="geometry">
            <mxPoint x="-488" y="704" as="sourcePoint" />
            <mxPoint x="-328" y="704" as="targetPoint" />
          </mxGeometry>
        </mxCell>
        <mxCell id="LFbB79-AIs5pltMv2B3R-213" value="1,N" style="resizable=0;html=1;whiteSpace=wrap;align=left;verticalAlign=bottom;fontSize=16;" connectable="0" vertex="1" parent="LFbB79-AIs5pltMv2B3R-212">
          <mxGeometry x="-1" relative="1" as="geometry" />
        </mxCell>
        <mxCell id="LFbB79-AIs5pltMv2B3R-214" value="0,N" style="resizable=0;html=1;whiteSpace=wrap;align=right;verticalAlign=bottom;fontSize=16;" connectable="0" vertex="1" parent="LFbB79-AIs5pltMv2B3R-212">
          <mxGeometry x="1" relative="1" as="geometry" />
        </mxCell>
        <mxCell id="LFbB79-AIs5pltMv2B3R-215" value="" style="endArrow=none;html=1;rounded=0;fontSize=12;startSize=8;endSize=8;curved=1;entryX=0.5;entryY=0;entryDx=0;entryDy=0;exitX=0.5;exitY=1;exitDx=0;exitDy=0;" edge="1" parent="1" source="LFbB79-AIs5pltMv2B3R-165" target="LFbB79-AIs5pltMv2B3R-209">
          <mxGeometry relative="1" as="geometry">
            <mxPoint x="-397" y="737" as="sourcePoint" />
            <mxPoint x="-220" y="735" as="targetPoint" />
          </mxGeometry>
        </mxCell>
        <mxCell id="LFbB79-AIs5pltMv2B3R-216" value="1,N" style="resizable=0;html=1;whiteSpace=wrap;align=left;verticalAlign=bottom;fontSize=16;" connectable="0" vertex="1" parent="LFbB79-AIs5pltMv2B3R-215">
          <mxGeometry x="-1" relative="1" as="geometry" />
        </mxCell>
        <mxCell id="LFbB79-AIs5pltMv2B3R-217" value="0,N" style="resizable=0;html=1;whiteSpace=wrap;align=right;verticalAlign=bottom;fontSize=16;" connectable="0" vertex="1" parent="LFbB79-AIs5pltMv2B3R-215">
          <mxGeometry x="1" relative="1" as="geometry" />
        </mxCell>
        <mxCell id="LFbB79-AIs5pltMv2B3R-218" value="" style="endArrow=none;html=1;rounded=0;fontSize=12;startSize=8;endSize=8;curved=1;entryX=0;entryY=0.5;entryDx=0;entryDy=0;exitX=1;exitY=0.5;exitDx=0;exitDy=0;" edge="1" parent="1" source="LFbB79-AIs5pltMv2B3R-210" target="LFbB79-AIs5pltMv2B3R-208">
          <mxGeometry relative="1" as="geometry">
            <mxPoint x="-323" y="750" as="sourcePoint" />
            <mxPoint x="-146" y="748" as="targetPoint" />
          </mxGeometry>
        </mxCell>
        <mxCell id="LFbB79-AIs5pltMv2B3R-219" value="0,N" style="resizable=0;html=1;whiteSpace=wrap;align=left;verticalAlign=bottom;fontSize=16;" connectable="0" vertex="1" parent="LFbB79-AIs5pltMv2B3R-218">
          <mxGeometry x="-1" relative="1" as="geometry" />
        </mxCell>
        <mxCell id="LFbB79-AIs5pltMv2B3R-220" value="1,N" style="resizable=0;html=1;whiteSpace=wrap;align=right;verticalAlign=bottom;fontSize=16;" connectable="0" vertex="1" parent="LFbB79-AIs5pltMv2B3R-218">
          <mxGeometry x="1" relative="1" as="geometry" />
        </mxCell>
        <mxCell id="LFbB79-AIs5pltMv2B3R-221" value="" style="verticalLabelPosition=bottom;verticalAlign=top;html=1;shape=mxgraph.basic.rect;fillColor2=none;strokeWidth=1;size=20;indent=5;" vertex="1" parent="1">
          <mxGeometry x="-2467" y="-1095" width="258" height="533" as="geometry" />
        </mxCell>
        <mxCell id="LFbB79-AIs5pltMv2B3R-222" value="" style="verticalLabelPosition=bottom;verticalAlign=top;html=1;shape=mxgraph.basic.rect;fillColor2=none;strokeWidth=1;size=20;indent=5;" vertex="1" parent="1">
          <mxGeometry x="-1434" y="-1095" width="258" height="533" as="geometry" />
        </mxCell>
        <mxCell id="LFbB79-AIs5pltMv2B3R-224" value="" style="verticalLabelPosition=bottom;verticalAlign=top;html=1;shape=mxgraph.basic.rect;fillColor2=none;strokeWidth=1;size=20;indent=5;" vertex="1" parent="1">
          <mxGeometry x="-1960.5" y="-1092" width="258" height="533" as="geometry" />
        </mxCell>
        <mxCell id="LFbB79-AIs5pltMv2B3R-227" value="" style="verticalLabelPosition=bottom;verticalAlign=top;html=1;shape=mxgraph.basic.rect;fillColor2=none;strokeWidth=1;size=20;indent=5;" vertex="1" parent="1">
          <mxGeometry x="-2398" y="-820" width="120" height="36" as="geometry" />
        </mxCell>
        <mxCell id="LFbB79-AIs5pltMv2B3R-229" value="&lt;p&gt;&lt;font face=&quot;Lucida Console&quot;&gt;Bem-Vindo(a) ao Aplicativo Agendamento&lt;/font&gt;&lt;/p&gt;" style="text;strokeColor=none;fillColor=none;align=center;verticalAlign=top;spacingLeft=4;spacingRight=4;overflow=hidden;rotatable=0;points=[[0,0.5],[1,0.5]];portConstraint=eastwest;whiteSpace=wrap;html=1;" vertex="1" parent="1">
          <mxGeometry x="-2462" y="-945" width="243" height="59" as="geometry" />
        </mxCell>
        <mxCell id="LFbB79-AIs5pltMv2B3R-230" value="&lt;p&gt;&lt;font face=&quot;Lucida Console&quot;&gt;ENTRAR&lt;/font&gt;&lt;/p&gt;" style="text;strokeColor=none;fillColor=none;align=center;verticalAlign=top;spacingLeft=4;spacingRight=4;overflow=hidden;rotatable=0;points=[[0,0.5],[1,0.5]];portConstraint=eastwest;whiteSpace=wrap;html=1;" vertex="1" parent="1">
          <mxGeometry x="-2459.5" y="-827" width="243" height="59" as="geometry" />
        </mxCell>
        <mxCell id="LFbB79-AIs5pltMv2B3R-234" value="LOGIN" style="swimlane;startSize=20;horizontal=1;containerType=tree;" vertex="1" parent="1">
          <mxGeometry x="-1952.5" y="-937" width="243" height="307" as="geometry" />
        </mxCell>
        <mxCell id="LFbB79-AIs5pltMv2B3R-243" value="&lt;font face=&quot;Lucida Console&quot;&gt;NÃºmero CPF&lt;/font&gt;" style="text;strokeColor=none;fillColor=none;align=left;verticalAlign=top;spacingLeft=4;spacingRight=4;overflow=hidden;rotatable=0;points=[[0,0.5],[1,0.5]];portConstraint=eastwest;whiteSpace=wrap;html=1;" vertex="1" parent="LFbB79-AIs5pltMv2B3R-234">
          <mxGeometry x="17.5" y="37" width="206.5" height="88" as="geometry" />
        </mxCell>
        <mxCell id="LFbB79-AIs5pltMv2B3R-244" value="&lt;font face=&quot;Lucida Console&quot;&gt;Senha&lt;/font&gt;" style="text;strokeColor=none;fillColor=none;align=left;verticalAlign=top;spacingLeft=4;spacingRight=4;overflow=hidden;rotatable=0;points=[[0,0.5],[1,0.5]];portConstraint=eastwest;whiteSpace=wrap;html=1;" vertex="1" parent="LFbB79-AIs5pltMv2B3R-234">
          <mxGeometry x="17.5" y="92" width="204.5" height="59" as="geometry" />
        </mxCell>
        <mxCell id="LFbB79-AIs5pltMv2B3R-241" value="" style="whiteSpace=wrap;html=1;treeFolding=1;treeMoving=1;newEdgeStyle={&quot;edgeStyle&quot;:&quot;elbowEdgeStyle&quot;,&quot;startArrow&quot;:&quot;none&quot;,&quot;endArrow&quot;:&quot;none&quot;};" vertex="1" parent="LFbB79-AIs5pltMv2B3R-234">
          <mxGeometry x="36.25" y="61" width="169" height="24" as="geometry" />
        </mxCell>
        <mxCell id="LFbB79-AIs5pltMv2B3R-240" value="" style="whiteSpace=wrap;html=1;treeFolding=1;treeMoving=1;newEdgeStyle={&quot;edgeStyle&quot;:&quot;elbowEdgeStyle&quot;,&quot;startArrow&quot;:&quot;none&quot;,&quot;endArrow&quot;:&quot;none&quot;};" vertex="1" parent="LFbB79-AIs5pltMv2B3R-234">
          <mxGeometry x="37" y="117" width="169" height="26" as="geometry" />
        </mxCell>
        <mxCell id="LFbB79-AIs5pltMv2B3R-252" value="999.999.999-99" style="text;strokeColor=none;fillColor=none;align=left;verticalAlign=middle;spacingLeft=4;spacingRight=4;overflow=hidden;points=[[0,0.5],[1,0.5]];portConstraint=eastwest;rotatable=0;whiteSpace=wrap;html=1;fontSize=16;" vertex="1" parent="LFbB79-AIs5pltMv2B3R-234">
          <mxGeometry x="57.75" y="58" width="124" height="30" as="geometry" />
        </mxCell>
        <mxCell id="LFbB79-AIs5pltMv2B3R-242" value="&lt;p&gt;&lt;font face=&quot;Lucida Console&quot;&gt;V:23.3.7&lt;/font&gt;&lt;/p&gt;" style="text;strokeColor=none;fillColor=none;align=center;verticalAlign=top;spacingLeft=4;spacingRight=4;overflow=hidden;rotatable=0;points=[[0,0.5],[1,0.5]];portConstraint=eastwest;whiteSpace=wrap;html=1;" vertex="1" parent="1">
          <mxGeometry x="-1953" y="-979" width="243" height="59" as="geometry" />
        </mxCell>
        <mxCell id="LFbB79-AIs5pltMv2B3R-245" value="&lt;pre&gt;&lt;font face=&quot;Lucida Console&quot;&gt;&lt;i&gt;&lt;u&gt;Esqueceu sua senha?&lt;/u&gt;&lt;/i&gt;&lt;/font&gt;&lt;/pre&gt;" style="text;strokeColor=none;fillColor=none;align=left;verticalAlign=top;spacingLeft=4;spacingRight=4;overflow=hidden;rotatable=0;points=[[0,0.5],[1,0.5]];portConstraint=eastwest;whiteSpace=wrap;html=1;" vertex="1" parent="1">
          <mxGeometry x="-1864.5" y="-811" width="149" height="59" as="geometry" />
        </mxCell>
        <mxCell id="LFbB79-AIs5pltMv2B3R-246" value="&lt;h4&gt;&lt;font face=&quot;Tahoma&quot;&gt;Se vocÃª ainda nÃ£o Ã© cadastrado:&lt;/font&gt;&lt;/h4&gt;" style="text;strokeColor=none;fillColor=none;align=left;verticalAlign=top;spacingLeft=4;spacingRight=4;overflow=hidden;rotatable=0;points=[[0,0.5],[1,0.5]];portConstraint=eastwest;whiteSpace=wrap;html=1;" vertex="1" parent="1">
          <mxGeometry x="-1917.5" y="-701" width="204" height="59" as="geometry" />
        </mxCell>
        <mxCell id="LFbB79-AIs5pltMv2B3R-247" value="&lt;h4&gt;&lt;font face=&quot;Tahoma&quot;&gt;&lt;u&gt;CADASTRE-SE AQUI&lt;/u&gt;&lt;/font&gt;&lt;/h4&gt;" style="text;strokeColor=none;fillColor=none;align=left;verticalAlign=top;spacingLeft=4;spacingRight=4;overflow=hidden;rotatable=0;points=[[0,0.5],[1,0.5]];portConstraint=eastwest;whiteSpace=wrap;html=1;" vertex="1" parent="1">
          <mxGeometry x="-1845.5" y="-677" width="132" height="59" as="geometry" />
        </mxCell>
        <mxCell id="LFbB79-AIs5pltMv2B3R-253" value="***********" style="text;strokeColor=none;fillColor=none;align=left;verticalAlign=middle;spacingLeft=4;spacingRight=4;overflow=hidden;points=[[0,0.5],[1,0.5]];portConstraint=eastwest;rotatable=0;whiteSpace=wrap;html=1;fontSize=16;" vertex="1" parent="1">
          <mxGeometry x="-1893" y="-821" width="124" height="30" as="geometry" />
        </mxCell>
        <mxCell id="LFbB79-AIs5pltMv2B3R-256" value="" style="rounded=1;whiteSpace=wrap;html=1;" vertex="1" parent="1">
          <mxGeometry x="-1881.75" y="-752" width="100.5" height="44" as="geometry" />
        </mxCell>
        <mxCell id="LFbB79-AIs5pltMv2B3R-255" value="&lt;p&gt;&lt;font style=&quot;font-size: 18px;&quot; face=&quot;Lucida Console&quot;&gt;ENTRAR&lt;/font&gt;&lt;/p&gt;" style="text;strokeColor=none;fillColor=none;align=center;verticalAlign=top;spacingLeft=4;spacingRight=4;overflow=hidden;rotatable=0;points=[[0,0.5],[1,0.5]];portConstraint=eastwest;whiteSpace=wrap;html=1;" vertex="1" parent="1">
          <mxGeometry x="-1952.5" y="-759.5" width="243" height="59" as="geometry" />
        </mxCell>
        <mxCell id="LFbB79-AIs5pltMv2B3R-258" value="" style="ellipse;whiteSpace=wrap;html=1;aspect=fixed;" vertex="1" parent="1">
          <mxGeometry x="-1423" y="-1048" width="67" height="67" as="geometry" />
        </mxCell>
        <mxCell id="LFbB79-AIs5pltMv2B3R-260" value="&lt;font face=&quot;Tahoma&quot; style=&quot;font-size: 12px;&quot;&gt;&lt;b&gt;Perfil&lt;/b&gt;&lt;/font&gt;" style="text;strokeColor=none;fillColor=none;align=left;verticalAlign=middle;spacingLeft=4;spacingRight=4;overflow=hidden;points=[[0,0.5],[1,0.5]];portConstraint=eastwest;rotatable=0;whiteSpace=wrap;html=1;fontSize=16;" vertex="1" parent="1">
          <mxGeometry x="-1433" y="-1092" width="80" height="30" as="geometry" />
        </mxCell>
        <mxCell id="LFbB79-AIs5pltMv2B3R-261" value="" style="line;strokeWidth=4;html=1;perimeter=backbonePerimeter;points=[];outlineConnect=0;" vertex="1" parent="1">
          <mxGeometry x="-1427" y="-1064" width="244" height="10" as="geometry" />
        </mxCell>
        <mxCell id="LFbB79-AIs5pltMv2B3R-262" value="" style="line;strokeWidth=4;html=1;perimeter=backbonePerimeter;points=[];outlineConnect=0;" vertex="1" parent="1">
          <mxGeometry x="-1427" y="-975" width="244" height="10" as="geometry" />
        </mxCell>
        <UserObject label="&lt;font style=&quot;font-size: 10px;&quot;&gt;%date{dd mm yyyy HH:MM:ss}%&lt;/font&gt;" placeholders="1" id="LFbB79-AIs5pltMv2B3R-271">
          <mxCell style="text;html=1;strokeColor=none;fillColor=none;align=center;verticalAlign=middle;whiteSpace=wrap;overflow=hidden;" vertex="1" parent="1">
            <mxGeometry x="-1385" y="-1090" width="160" height="20" as="geometry" />
          </mxCell>
        </UserObject>
        <mxCell id="LFbB79-AIs5pltMv2B3R-280" value="" style="line;strokeWidth=4;html=1;perimeter=backbonePerimeter;points=[];outlineConnect=0;" vertex="1" parent="1">
          <mxGeometry x="-1204" y="-1089" width="16" height="10" as="geometry" />
        </mxCell>
        <mxCell id="LFbB79-AIs5pltMv2B3R-281" value="" style="line;strokeWidth=4;html=1;perimeter=backbonePerimeter;points=[];outlineConnect=0;" vertex="1" parent="1">
          <mxGeometry x="-1204" y="-1083" width="16" height="10" as="geometry" />
        </mxCell>
        <mxCell id="LFbB79-AIs5pltMv2B3R-282" value="" style="line;strokeWidth=4;html=1;perimeter=backbonePerimeter;points=[];outlineConnect=0;" vertex="1" parent="1">
          <mxGeometry x="-1204" y="-1077" width="16" height="10" as="geometry" />
        </mxCell>
        <mxCell id="LFbB79-AIs5pltMv2B3R-284" value="&lt;h2&gt;&lt;b&gt;Manoel Felix da Silva&lt;/b&gt;&lt;/h2&gt;" style="text;strokeColor=none;fillColor=none;align=left;verticalAlign=middle;spacingLeft=4;spacingRight=4;overflow=hidden;points=[[0,0.5],[1,0.5]];portConstraint=eastwest;rotatable=0;whiteSpace=wrap;html=1;fontSize=16;" vertex="1" parent="1">
          <mxGeometry x="-1352" y="-1073" width="157" height="80" as="geometry" />
        </mxCell>
        <mxCell id="LFbB79-AIs5pltMv2B3R-285" value="&lt;font style=&quot;font-size: 14px;&quot;&gt;ID 1541763&lt;/font&gt;" style="text;strokeColor=none;fillColor=none;align=left;verticalAlign=middle;spacingLeft=4;spacingRight=4;overflow=hidden;points=[[0,0.5],[1,0.5]];portConstraint=eastwest;rotatable=0;whiteSpace=wrap;html=1;fontSize=16;" vertex="1" parent="1">
          <mxGeometry x="-1352" y="-998.5" width="104" height="30" as="geometry" />
        </mxCell>
        <mxCell id="LFbB79-AIs5pltMv2B3R-301" value="OUTRAS INFORMAÃÃES" style="swimlane;startSize=20;horizontal=1;containerType=tree;" vertex="1" parent="1">
          <mxGeometry x="-1426" y="-936" width="243" height="307" as="geometry" />
        </mxCell>
        <mxCell id="LFbB79-AIs5pltMv2B3R-314" value="Financeiro" style="html=1;whiteSpace=wrap;container=1;recursiveResize=0;collapsible=0;align=center;" vertex="1" parent="1">
          <mxGeometry x="-1393.5" y="-809" width="178" height="72" as="geometry" />
        </mxCell>
        <mxCell id="LFbB79-AIs5pltMv2B3R-318" value="Plano" style="html=1;whiteSpace=wrap;container=1;recursiveResize=0;collapsible=0;align=center;" vertex="1" parent="1">
          <mxGeometry x="-1394" y="-894" width="178" height="70" as="geometry" />
        </mxCell>
        <mxCell id="LFbB79-AIs5pltMv2B3R-330" value="" style="html=1;verticalLabelPosition=bottom;align=center;labelBackgroundColor=#ffffff;verticalAlign=top;strokeWidth=2;strokeColor=#0080F0;shadow=0;dashed=0;shape=mxgraph.ios7.icons.compose;" vertex="1" parent="LFbB79-AIs5pltMv2B3R-318">
          <mxGeometry x="9" y="20.450000000000045" width="29.099999999999998" height="29.099999999999998" as="geometry" />
        </mxCell>
        <mxCell id="LFbB79-AIs5pltMv2B3R-320" value="Agendamento" style="html=1;whiteSpace=wrap;container=1;recursiveResize=0;collapsible=0;align=center;" vertex="1" parent="1">
          <mxGeometry x="-1394" y="-722" width="178" height="70" as="geometry" />
        </mxCell>
        <mxCell id="LFbB79-AIs5pltMv2B3R-322" value="" style="verticalLabelPosition=bottom;verticalAlign=top;html=1;shadow=0;dashed=0;strokeWidth=1;shape=mxgraph.android.phone2;strokeColor=#c0c0c0;" vertex="1" parent="1">
          <mxGeometry x="-2479" y="-1154" width="280" height="652" as="geometry" />
        </mxCell>
        <mxCell id="LFbB79-AIs5pltMv2B3R-323" value="" style="verticalLabelPosition=bottom;verticalAlign=top;html=1;shadow=0;dashed=0;strokeWidth=1;shape=mxgraph.android.phone2;strokeColor=#c0c0c0;" vertex="1" parent="1">
          <mxGeometry x="-1972" y="-1151" width="280" height="652" as="geometry" />
        </mxCell>
        <mxCell id="LFbB79-AIs5pltMv2B3R-324" value="" style="verticalLabelPosition=bottom;verticalAlign=top;html=1;shadow=0;dashed=0;strokeWidth=1;shape=mxgraph.android.phone2;strokeColor=#c0c0c0;" vertex="1" parent="1">
          <mxGeometry x="-1446" y="-1154" width="280" height="652" as="geometry" />
        </mxCell>
        <mxCell id="LFbB79-AIs5pltMv2B3R-326" value="" style="image;html=1;image=img/lib/clip_art/people/Worker_Black_128x128.png" vertex="1" parent="1">
          <mxGeometry x="-1425" y="-1047" width="71" height="65" as="geometry" />
        </mxCell>
        <mxCell id="LFbB79-AIs5pltMv2B3R-331" value="" style="html=1;verticalLabelPosition=bottom;align=center;labelBackgroundColor=#ffffff;verticalAlign=top;strokeWidth=2;strokeColor=#0080F0;shadow=0;dashed=0;shape=mxgraph.ios7.icons.clock;" vertex="1" parent="1">
          <mxGeometry x="-1385" y="-702" width="30" height="30" as="geometry" />
        </mxCell>
        <mxCell id="LFbB79-AIs5pltMv2B3R-333" value="" style="html=1;verticalLabelPosition=bottom;align=center;labelBackgroundColor=#ffffff;verticalAlign=top;strokeWidth=2;strokeColor=#0080F0;shadow=0;dashed=0;shape=mxgraph.ios7.icons.calculator;" vertex="1" parent="1">
          <mxGeometry x="-1385" y="-788" width="24" height="30" as="geometry" />
        </mxCell>
        <mxCell id="LFbB79-AIs5pltMv2B3R-334" value="" style="verticalLabelPosition=bottom;verticalAlign=top;html=1;shape=mxgraph.basic.rect;fillColor2=none;strokeWidth=1;size=20;indent=5;" vertex="1" parent="1">
          <mxGeometry x="-862" y="-1092" width="258" height="533" as="geometry" />
        </mxCell>
        <mxCell id="LFbB79-AIs5pltMv2B3R-336" value="&lt;font face=&quot;Tahoma&quot; style=&quot;font-size: 12px;&quot;&gt;&lt;b&gt;Agenda&lt;/b&gt;&lt;/font&gt;" style="text;strokeColor=none;fillColor=none;align=left;verticalAlign=middle;spacingLeft=4;spacingRight=4;overflow=hidden;points=[[0,0.5],[1,0.5]];portConstraint=eastwest;rotatable=0;whiteSpace=wrap;html=1;fontSize=16;" vertex="1" parent="1">
          <mxGeometry x="-861" y="-1089" width="80" height="30" as="geometry" />
        </mxCell>
        <mxCell id="LFbB79-AIs5pltMv2B3R-337" value="" style="line;strokeWidth=4;html=1;perimeter=backbonePerimeter;points=[];outlineConnect=0;" vertex="1" parent="1">
          <mxGeometry x="-855" y="-1061" width="244" height="10" as="geometry" />
        </mxCell>
        <UserObject label="&lt;font style=&quot;font-size: 10px;&quot;&gt;%date{dd mm yyyy HH:MM:ss}%&lt;/font&gt;" placeholders="1" id="LFbB79-AIs5pltMv2B3R-339">
          <mxCell style="text;html=1;strokeColor=none;fillColor=none;align=center;verticalAlign=middle;whiteSpace=wrap;overflow=hidden;" vertex="1" parent="1">
            <mxGeometry x="-813" y="-1087" width="160" height="20" as="geometry" />
          </mxCell>
        </UserObject>
        <mxCell id="LFbB79-AIs5pltMv2B3R-340" value="" style="line;strokeWidth=4;html=1;perimeter=backbonePerimeter;points=[];outlineConnect=0;" vertex="1" parent="1">
          <mxGeometry x="-632" y="-1086" width="16" height="10" as="geometry" />
        </mxCell>
        <mxCell id="LFbB79-AIs5pltMv2B3R-341" value="" style="line;strokeWidth=4;html=1;perimeter=backbonePerimeter;points=[];outlineConnect=0;" vertex="1" parent="1">
          <mxGeometry x="-632" y="-1080" width="16" height="10" as="geometry" />
        </mxCell>
        <mxCell id="LFbB79-AIs5pltMv2B3R-342" value="" style="line;strokeWidth=4;html=1;perimeter=backbonePerimeter;points=[];outlineConnect=0;" vertex="1" parent="1">
          <mxGeometry x="-632" y="-1074" width="16" height="10" as="geometry" />
        </mxCell>
        <mxCell id="LFbB79-AIs5pltMv2B3R-350" value="" style="verticalLabelPosition=bottom;verticalAlign=top;html=1;shadow=0;dashed=0;strokeWidth=1;shape=mxgraph.android.phone2;strokeColor=#c0c0c0;" vertex="1" parent="1">
          <mxGeometry x="-874" y="-1151" width="280" height="652" as="geometry" />
        </mxCell>
        <mxCell id="LFbB79-AIs5pltMv2B3R-356" value="" style="ellipse;whiteSpace=wrap;html=1;aspect=fixed;" vertex="1" parent="1">
          <mxGeometry x="-1882.5" y="-1080" width="101" height="101" as="geometry" />
        </mxCell>
        <mxCell id="LFbB79-AIs5pltMv2B3R-357" value="" style="ellipse;whiteSpace=wrap;html=1;aspect=fixed;" vertex="1" parent="1">
          <mxGeometry x="-2389.5" y="-1083.5" width="101" height="101" as="geometry" />
        </mxCell>
        <mxCell id="LFbB79-AIs5pltMv2B3R-358" value="" style="shape=mxgraph.signs.sports.exercise;html=1;pointerEvents=1;fillColor=#000000;strokeColor=none;verticalLabelPosition=bottom;verticalAlign=top;align=center;sketch=0;" vertex="1" parent="1">
          <mxGeometry x="-2381.5" y="-1065.75" width="79" height="67.5" as="geometry" />
        </mxCell>
        <mxCell id="LFbB79-AIs5pltMv2B3R-359" value="" style="shape=mxgraph.signs.sports.exercise;html=1;pointerEvents=1;fillColor=#000000;strokeColor=none;verticalLabelPosition=bottom;verticalAlign=top;align=center;sketch=0;" vertex="1" parent="1">
          <mxGeometry x="-1874.5" y="-1063" width="79" height="67.5" as="geometry" />
        </mxCell>
        <mxCell id="LFbB79-AIs5pltMv2B3R-360" value="" style="strokeWidth=1;shadow=0;dashed=0;align=center;html=1;shape=mxgraph.mockup.forms.rrect;rSize=5;strokeColor=#999999;fillColor=#ffffff;" vertex="1" parent="1">
          <mxGeometry x="-855" y="-973" width="241" height="284" as="geometry" />
        </mxCell>
        <mxCell id="LFbB79-AIs5pltMv2B3R-361" value="Junho 2023" style="strokeWidth=1;shadow=0;dashed=0;align=center;html=1;shape=mxgraph.mockup.forms.anchor;fontColor=#999999;" vertex="1" parent="LFbB79-AIs5pltMv2B3R-360">
          <mxGeometry x="45.1875" y="12.982857142857142" width="150.625" height="32.457142857142856" as="geometry" />
        </mxCell>
        <mxCell id="LFbB79-AIs5pltMv2B3R-362" value="&lt;" style="strokeWidth=1;shadow=0;dashed=0;align=center;html=1;shape=mxgraph.mockup.forms.rrect;rSize=4;strokeColor=#999999;fontColor=#008cff;fontSize=19;fontStyle=1;" vertex="1" parent="LFbB79-AIs5pltMv2B3R-360">
          <mxGeometry x="12.05" y="12.982857142857142" width="37.65625" height="32.457142857142856" as="geometry" />
        </mxCell>
        <mxCell id="LFbB79-AIs5pltMv2B3R-363" value="&gt;" style="strokeWidth=1;shadow=0;dashed=0;align=center;html=1;shape=mxgraph.mockup.forms.rrect;rSize=4;strokeColor=#999999;fontColor=#008cff;fontSize=19;fontStyle=1;" vertex="1" parent="LFbB79-AIs5pltMv2B3R-360">
          <mxGeometry x="191.29375" y="12.982857142857142" width="37.65625" height="32.457142857142856" as="geometry" />
        </mxCell>
        <mxCell id="LFbB79-AIs5pltMv2B3R-364" value="&lt;font style=&quot;font-size: 10px;&quot;&gt;QUI&lt;/font&gt;" style="strokeWidth=1;shadow=0;dashed=0;align=center;html=1;shape=mxgraph.mockup.forms.anchor;fontColor=#999999;" vertex="1" parent="LFbB79-AIs5pltMv2B3R-360">
          <mxGeometry x="15.0625" y="45.44" width="30.125" height="32.457142857142856" as="geometry" />
        </mxCell>
        <mxCell id="LFbB79-AIs5pltMv2B3R-365" value="&lt;font style=&quot;font-size: 10px;&quot;&gt;SEX&lt;/font&gt;" style="strokeWidth=1;shadow=0;dashed=0;align=center;html=1;shape=mxgraph.mockup.forms.anchor;fontColor=#999999;" vertex="1" parent="LFbB79-AIs5pltMv2B3R-360">
          <mxGeometry x="45.1875" y="45.44" width="30.125" height="32.457142857142856" as="geometry" />
        </mxCell>
        <mxCell id="LFbB79-AIs5pltMv2B3R-366" value="&lt;font style=&quot;font-size: 10px;&quot;&gt;SAB&lt;/font&gt;" style="strokeWidth=1;shadow=0;dashed=0;align=center;html=1;shape=mxgraph.mockup.forms.anchor;fontColor=#999999;" vertex="1" parent="LFbB79-AIs5pltMv2B3R-360">
          <mxGeometry x="75.3125" y="45.44" width="30.125" height="32.457142857142856" as="geometry" />
        </mxCell>
        <mxCell id="LFbB79-AIs5pltMv2B3R-367" value="&lt;font style=&quot;font-size: 10px;&quot;&gt;DOM&lt;/font&gt;" style="strokeWidth=1;shadow=0;dashed=0;align=center;html=1;shape=mxgraph.mockup.forms.anchor;fontColor=#999999;" vertex="1" parent="LFbB79-AIs5pltMv2B3R-360">
          <mxGeometry x="105.4375" y="45.44" width="30.125" height="32.457142857142856" as="geometry" />
        </mxCell>
        <mxCell id="LFbB79-AIs5pltMv2B3R-368" value="&lt;font style=&quot;font-size: 10px;&quot;&gt;SEG&lt;/font&gt;" style="strokeWidth=1;shadow=0;dashed=0;align=center;html=1;shape=mxgraph.mockup.forms.anchor;fontColor=#999999;" vertex="1" parent="LFbB79-AIs5pltMv2B3R-360">
          <mxGeometry x="135.5625" y="45.44" width="30.125" height="32.457142857142856" as="geometry" />
        </mxCell>
        <mxCell id="LFbB79-AIs5pltMv2B3R-369" value="&lt;font style=&quot;font-size: 10px;&quot;&gt;TER&lt;/font&gt;" style="strokeWidth=1;shadow=0;dashed=0;align=center;html=1;shape=mxgraph.mockup.forms.anchor;fontColor=#999999;" vertex="1" parent="LFbB79-AIs5pltMv2B3R-360">
          <mxGeometry x="165.6875" y="45.44" width="30.125" height="32.457142857142856" as="geometry" />
        </mxCell>
        <mxCell id="LFbB79-AIs5pltMv2B3R-370" value="&lt;font style=&quot;font-size: 10px;&quot;&gt;QUA&lt;/font&gt;" style="strokeWidth=1;shadow=0;dashed=0;align=center;html=1;shape=mxgraph.mockup.forms.anchor;fontColor=#999999;" vertex="1" parent="LFbB79-AIs5pltMv2B3R-360">
          <mxGeometry x="195.8125" y="45.44" width="30.125" height="32.457142857142856" as="geometry" />
        </mxCell>
        <mxCell id="LFbB79-AIs5pltMv2B3R-371" value="1" style="strokeWidth=1;shadow=0;dashed=0;align=center;html=1;shape=mxgraph.mockup.forms.rrect;rSize=0;strokeColor=#999999;fontColor=#999999;" vertex="1" parent="LFbB79-AIs5pltMv2B3R-360">
          <mxGeometry x="15.0625" y="77.89714285714285" width="30.125" height="32.457142857142856" as="geometry" />
        </mxCell>
        <mxCell id="LFbB79-AIs5pltMv2B3R-372" value="2" style="strokeWidth=1;shadow=0;dashed=0;align=center;html=1;shape=mxgraph.mockup.forms.rrect;rSize=0;strokeColor=#999999;fontColor=#999999;" vertex="1" parent="LFbB79-AIs5pltMv2B3R-360">
          <mxGeometry x="45.1875" y="77.89714285714285" width="30.125" height="32.457142857142856" as="geometry" />
        </mxCell>
        <mxCell id="LFbB79-AIs5pltMv2B3R-373" value="3" style="strokeWidth=1;shadow=0;dashed=0;align=center;html=1;shape=mxgraph.mockup.forms.rrect;rSize=0;strokeColor=#999999;fontColor=#999999;" vertex="1" parent="LFbB79-AIs5pltMv2B3R-360">
          <mxGeometry x="75.3125" y="77.89714285714285" width="30.125" height="32.457142857142856" as="geometry" />
        </mxCell>
        <mxCell id="LFbB79-AIs5pltMv2B3R-374" value="4" style="strokeWidth=1;shadow=0;dashed=0;align=center;html=1;shape=mxgraph.mockup.forms.rrect;rSize=0;strokeColor=#999999;fontColor=#999999;" vertex="1" parent="LFbB79-AIs5pltMv2B3R-360">
          <mxGeometry x="105.4375" y="77.89714285714285" width="30.125" height="32.457142857142856" as="geometry" />
        </mxCell>
        <mxCell id="LFbB79-AIs5pltMv2B3R-375" value="5" style="strokeWidth=1;shadow=0;dashed=0;align=center;html=1;shape=mxgraph.mockup.forms.rrect;rSize=0;strokeColor=#999999;fontColor=#999999;" vertex="1" parent="LFbB79-AIs5pltMv2B3R-360">
          <mxGeometry x="135.5625" y="77.89714285714285" width="30.125" height="32.457142857142856" as="geometry" />
        </mxCell>
        <mxCell id="LFbB79-AIs5pltMv2B3R-376" value="6" style="strokeWidth=1;shadow=0;dashed=0;align=center;html=1;shape=mxgraph.mockup.forms.rrect;rSize=0;strokeColor=#999999;fontColor=#999999;" vertex="1" parent="LFbB79-AIs5pltMv2B3R-360">
          <mxGeometry x="165.6875" y="77.89714285714285" width="30.125" height="32.457142857142856" as="geometry" />
        </mxCell>
        <mxCell id="LFbB79-AIs5pltMv2B3R-377" value="7" style="strokeWidth=1;shadow=0;dashed=0;align=center;html=1;shape=mxgraph.mockup.forms.rrect;rSize=0;strokeColor=#999999;fontColor=#999999;" vertex="1" parent="LFbB79-AIs5pltMv2B3R-360">
          <mxGeometry x="195.8125" y="77.89714285714285" width="30.125" height="32.457142857142856" as="geometry" />
        </mxCell>
        <mxCell id="LFbB79-AIs5pltMv2B3R-378" value="8" style="strokeWidth=1;shadow=0;dashed=0;align=center;html=1;shape=mxgraph.mockup.forms.rrect;rSize=0;strokeColor=#999999;fontColor=#999999;" vertex="1" parent="LFbB79-AIs5pltMv2B3R-360">
          <mxGeometry x="15.0625" y="110.3542857142857" width="30.125" height="32.457142857142856" as="geometry" />
        </mxCell>
        <mxCell id="LFbB79-AIs5pltMv2B3R-379" value="9" style="strokeWidth=1;shadow=0;dashed=0;align=center;html=1;shape=mxgraph.mockup.forms.rrect;rSize=0;strokeColor=#999999;fontColor=#999999;" vertex="1" parent="LFbB79-AIs5pltMv2B3R-360">
          <mxGeometry x="45.1875" y="110.3542857142857" width="30.125" height="32.457142857142856" as="geometry" />
        </mxCell>
        <mxCell id="LFbB79-AIs5pltMv2B3R-380" value="10" style="strokeWidth=1;shadow=0;dashed=0;align=center;html=1;shape=mxgraph.mockup.forms.rrect;rSize=0;strokeColor=#999999;fontColor=#999999;" vertex="1" parent="LFbB79-AIs5pltMv2B3R-360">
          <mxGeometry x="75.3125" y="110.3542857142857" width="30.125" height="32.457142857142856" as="geometry" />
        </mxCell>
        <mxCell id="LFbB79-AIs5pltMv2B3R-381" value="11" style="strokeWidth=1;shadow=0;dashed=0;align=center;html=1;shape=mxgraph.mockup.forms.rrect;rSize=0;strokeColor=#999999;fontColor=#999999;" vertex="1" parent="LFbB79-AIs5pltMv2B3R-360">
          <mxGeometry x="105.4375" y="110.3542857142857" width="30.125" height="32.457142857142856" as="geometry" />
        </mxCell>
        <mxCell id="LFbB79-AIs5pltMv2B3R-382" value="12" style="strokeWidth=1;shadow=0;dashed=0;align=center;html=1;shape=mxgraph.mockup.forms.rrect;rSize=0;strokeColor=#999999;fontColor=#999999;" vertex="1" parent="LFbB79-AIs5pltMv2B3R-360">
          <mxGeometry x="135.5625" y="110.3542857142857" width="30.125" height="32.457142857142856" as="geometry" />
        </mxCell>
        <mxCell id="LFbB79-AIs5pltMv2B3R-383" value="13" style="strokeWidth=1;shadow=0;dashed=0;align=center;html=1;shape=mxgraph.mockup.forms.rrect;rSize=0;strokeColor=#999999;fontColor=#999999;" vertex="1" parent="LFbB79-AIs5pltMv2B3R-360">
          <mxGeometry x="165.6875" y="110.3542857142857" width="30.125" height="32.457142857142856" as="geometry" />
        </mxCell>
        <mxCell id="LFbB79-AIs5pltMv2B3R-384" value="14" style="strokeWidth=1;shadow=0;dashed=0;align=center;html=1;shape=mxgraph.mockup.forms.rrect;rSize=0;strokeColor=#999999;fontColor=#999999;" vertex="1" parent="LFbB79-AIs5pltMv2B3R-360">
          <mxGeometry x="195.8125" y="110.3542857142857" width="30.125" height="32.457142857142856" as="geometry" />
        </mxCell>
        <mxCell id="LFbB79-AIs5pltMv2B3R-385" value="15" style="strokeWidth=1;shadow=0;dashed=0;align=center;html=1;shape=mxgraph.mockup.forms.rrect;rSize=0;strokeColor=#999999;fontColor=#999999;" vertex="1" parent="LFbB79-AIs5pltMv2B3R-360">
          <mxGeometry x="15.0625" y="142.81142857142856" width="30.125" height="32.457142857142856" as="geometry" />
        </mxCell>
        <mxCell id="LFbB79-AIs5pltMv2B3R-386" value="16" style="strokeWidth=1;shadow=0;dashed=0;align=center;html=1;shape=mxgraph.mockup.forms.rrect;rSize=0;strokeColor=#999999;fontColor=#999999;" vertex="1" parent="LFbB79-AIs5pltMv2B3R-360">
          <mxGeometry x="45.1875" y="142.81142857142856" width="30.125" height="32.457142857142856" as="geometry" />
        </mxCell>
        <mxCell id="LFbB79-AIs5pltMv2B3R-387" value="17" style="strokeWidth=1;shadow=0;dashed=0;align=center;html=1;shape=mxgraph.mockup.forms.rrect;rSize=0;strokeColor=#999999;fontColor=#999999;" vertex="1" parent="LFbB79-AIs5pltMv2B3R-360">
          <mxGeometry x="75.3125" y="142.81142857142856" width="30.125" height="32.457142857142856" as="geometry" />
        </mxCell>
        <mxCell id="LFbB79-AIs5pltMv2B3R-388" value="18" style="strokeWidth=1;shadow=0;dashed=0;align=center;html=1;shape=mxgraph.mockup.forms.rrect;rSize=0;strokeColor=#999999;fontColor=#999999;" vertex="1" parent="LFbB79-AIs5pltMv2B3R-360">
          <mxGeometry x="105.4375" y="142.81142857142856" width="30.125" height="32.457142857142856" as="geometry" />
        </mxCell>
        <mxCell id="LFbB79-AIs5pltMv2B3R-389" value="19" style="strokeWidth=1;shadow=0;dashed=0;align=center;html=1;shape=mxgraph.mockup.forms.rrect;rSize=0;strokeColor=#999999;fontColor=#999999;" vertex="1" parent="LFbB79-AIs5pltMv2B3R-360">
          <mxGeometry x="135.5625" y="142.81142857142856" width="30.125" height="32.457142857142856" as="geometry" />
        </mxCell>
        <mxCell id="LFbB79-AIs5pltMv2B3R-390" value="20" style="strokeWidth=1;shadow=0;dashed=0;align=center;html=1;shape=mxgraph.mockup.forms.rrect;rSize=0;strokeColor=#999999;fontColor=#999999;" vertex="1" parent="LFbB79-AIs5pltMv2B3R-360">
          <mxGeometry x="165.6875" y="142.81142857142856" width="30.125" height="32.457142857142856" as="geometry" />
        </mxCell>
        <mxCell id="LFbB79-AIs5pltMv2B3R-391" value="21" style="strokeWidth=1;shadow=0;dashed=0;align=center;html=1;shape=mxgraph.mockup.forms.rrect;rSize=0;strokeColor=#999999;fontColor=#999999;" vertex="1" parent="LFbB79-AIs5pltMv2B3R-360">
          <mxGeometry x="195.8125" y="142.81142857142856" width="30.125" height="32.457142857142856" as="geometry" />
        </mxCell>
        <mxCell id="LFbB79-AIs5pltMv2B3R-392" value="22" style="strokeWidth=1;shadow=0;dashed=0;align=center;html=1;shape=mxgraph.mockup.forms.rrect;rSize=0;strokeColor=#999999;fontColor=#999999;" vertex="1" parent="LFbB79-AIs5pltMv2B3R-360">
          <mxGeometry x="15.0625" y="175.2685714285714" width="30.125" height="32.457142857142856" as="geometry" />
        </mxCell>
        <mxCell id="LFbB79-AIs5pltMv2B3R-393" value="23" style="strokeWidth=1;shadow=0;dashed=0;align=center;html=1;shape=mxgraph.mockup.forms.rrect;rSize=0;strokeColor=#999999;fontColor=#999999;" vertex="1" parent="LFbB79-AIs5pltMv2B3R-360">
          <mxGeometry x="45.1875" y="175.2685714285714" width="30.125" height="32.457142857142856" as="geometry" />
        </mxCell>
        <mxCell id="LFbB79-AIs5pltMv2B3R-394" value="25" style="strokeWidth=1;shadow=0;dashed=0;align=center;html=1;shape=mxgraph.mockup.forms.rrect;rSize=0;strokeColor=#999999;fontColor=#999999;" vertex="1" parent="LFbB79-AIs5pltMv2B3R-360">
          <mxGeometry x="105.4375" y="175.2685714285714" width="30.125" height="32.457142857142856" as="geometry" />
        </mxCell>
        <mxCell id="LFbB79-AIs5pltMv2B3R-395" value="26" style="strokeWidth=1;shadow=0;dashed=0;align=center;html=1;shape=mxgraph.mockup.forms.rrect;rSize=0;strokeColor=#999999;fontColor=#999999;" vertex="1" parent="LFbB79-AIs5pltMv2B3R-360">
          <mxGeometry x="135.5625" y="175.2685714285714" width="30.125" height="32.457142857142856" as="geometry" />
        </mxCell>
        <mxCell id="LFbB79-AIs5pltMv2B3R-396" value="27" style="strokeWidth=1;shadow=0;dashed=0;align=center;html=1;shape=mxgraph.mockup.forms.rrect;rSize=0;strokeColor=#999999;fontColor=#999999;" vertex="1" parent="LFbB79-AIs5pltMv2B3R-360">
          <mxGeometry x="165.6875" y="175.2685714285714" width="30.125" height="32.457142857142856" as="geometry" />
        </mxCell>
        <mxCell id="LFbB79-AIs5pltMv2B3R-397" value="28" style="strokeWidth=1;shadow=0;dashed=0;align=center;html=1;shape=mxgraph.mockup.forms.rrect;rSize=0;strokeColor=#999999;fontColor=#999999;" vertex="1" parent="LFbB79-AIs5pltMv2B3R-360">
          <mxGeometry x="195.8125" y="175.2685714285714" width="30.125" height="32.457142857142856" as="geometry" />
        </mxCell>
        <mxCell id="LFbB79-AIs5pltMv2B3R-398" value="29" style="strokeWidth=1;shadow=0;dashed=0;align=center;html=1;shape=mxgraph.mockup.forms.rrect;rSize=0;strokeColor=#999999;fontColor=#999999;" vertex="1" parent="LFbB79-AIs5pltMv2B3R-360">
          <mxGeometry x="15.0625" y="207.72571428571428" width="30.125" height="32.457142857142856" as="geometry" />
        </mxCell>
        <mxCell id="LFbB79-AIs5pltMv2B3R-399" value="30" style="strokeWidth=1;shadow=0;dashed=0;align=center;html=1;shape=mxgraph.mockup.forms.rrect;rSize=0;strokeColor=#999999;fontColor=#999999;" vertex="1" parent="LFbB79-AIs5pltMv2B3R-360">
          <mxGeometry x="45.1875" y="207.72571428571428" width="30.125" height="32.457142857142856" as="geometry" />
        </mxCell>
        <mxCell id="LFbB79-AIs5pltMv2B3R-401" value="2" style="strokeWidth=1;shadow=0;dashed=0;align=center;html=1;shape=mxgraph.mockup.forms.rrect;rSize=0;strokeColor=#999999;fontColor=#999999;fillColor=#ddeeff;" vertex="1" parent="LFbB79-AIs5pltMv2B3R-360">
          <mxGeometry x="105.4375" y="207.72571428571428" width="30.125" height="32.457142857142856" as="geometry" />
        </mxCell>
        <mxCell id="LFbB79-AIs5pltMv2B3R-402" value="3" style="strokeWidth=1;shadow=0;dashed=0;align=center;html=1;shape=mxgraph.mockup.forms.rrect;rSize=0;strokeColor=#999999;fontColor=#999999;fillColor=#ddeeff;" vertex="1" parent="LFbB79-AIs5pltMv2B3R-360">
          <mxGeometry x="135.5625" y="207.72571428571428" width="30.125" height="32.457142857142856" as="geometry" />
        </mxCell>
        <mxCell id="LFbB79-AIs5pltMv2B3R-403" value="4" style="strokeWidth=1;shadow=0;dashed=0;align=center;html=1;shape=mxgraph.mockup.forms.rrect;rSize=0;strokeColor=#999999;fontColor=#999999;fillColor=#ddeeff;" vertex="1" parent="LFbB79-AIs5pltMv2B3R-360">
          <mxGeometry x="165.6875" y="207.72571428571428" width="30.125" height="32.457142857142856" as="geometry" />
        </mxCell>
        <mxCell id="LFbB79-AIs5pltMv2B3R-404" value="5" style="strokeWidth=1;shadow=0;dashed=0;align=center;html=1;shape=mxgraph.mockup.forms.rrect;rSize=0;strokeColor=#999999;fontColor=#999999;fillColor=#ddeeff;" vertex="1" parent="LFbB79-AIs5pltMv2B3R-360">
          <mxGeometry x="195.8125" y="207.72571428571428" width="30.125" height="32.457142857142856" as="geometry" />
        </mxCell>
        <mxCell id="LFbB79-AIs5pltMv2B3R-405" value="6" style="strokeWidth=1;shadow=0;dashed=0;align=center;html=1;shape=mxgraph.mockup.forms.rrect;rSize=0;strokeColor=#999999;fontColor=#999999;fillColor=#ddeeff;" vertex="1" parent="LFbB79-AIs5pltMv2B3R-360">
          <mxGeometry x="15.0625" y="240.18285714285713" width="30.125" height="32.457142857142856" as="geometry" />
        </mxCell>
        <mxCell id="LFbB79-AIs5pltMv2B3R-406" value="7" style="strokeWidth=1;shadow=0;dashed=0;align=center;html=1;shape=mxgraph.mockup.forms.rrect;rSize=0;strokeColor=#999999;fontColor=#999999;fillColor=#ddeeff;" vertex="1" parent="LFbB79-AIs5pltMv2B3R-360">
          <mxGeometry x="45.1875" y="240.18285714285713" width="30.125" height="32.457142857142856" as="geometry" />
        </mxCell>
        <mxCell id="LFbB79-AIs5pltMv2B3R-407" value="8" style="strokeWidth=1;shadow=0;dashed=0;align=center;html=1;shape=mxgraph.mockup.forms.rrect;rSize=0;strokeColor=#999999;fontColor=#999999;fillColor=#ddeeff;" vertex="1" parent="LFbB79-AIs5pltMv2B3R-360">
          <mxGeometry x="75.3125" y="240.18285714285713" width="30.125" height="32.457142857142856" as="geometry" />
        </mxCell>
        <mxCell id="LFbB79-AIs5pltMv2B3R-408" value="9" style="strokeWidth=1;shadow=0;dashed=0;align=center;html=1;shape=mxgraph.mockup.forms.rrect;rSize=0;strokeColor=#999999;fontColor=#999999;fillColor=#ddeeff;" vertex="1" parent="LFbB79-AIs5pltMv2B3R-360">
          <mxGeometry x="105.4375" y="240.18285714285713" width="30.125" height="32.457142857142856" as="geometry" />
        </mxCell>
        <mxCell id="LFbB79-AIs5pltMv2B3R-409" value="10" style="strokeWidth=1;shadow=0;dashed=0;align=center;html=1;shape=mxgraph.mockup.forms.rrect;rSize=0;strokeColor=#999999;fontColor=#999999;fillColor=#ddeeff;" vertex="1" parent="LFbB79-AIs5pltMv2B3R-360">
          <mxGeometry x="135.5625" y="240.18285714285713" width="30.125" height="32.457142857142856" as="geometry" />
        </mxCell>
        <mxCell id="LFbB79-AIs5pltMv2B3R-410" value="11" style="strokeWidth=1;shadow=0;dashed=0;align=center;html=1;shape=mxgraph.mockup.forms.rrect;rSize=0;strokeColor=#999999;fontColor=#999999;fillColor=#ddeeff;" vertex="1" parent="LFbB79-AIs5pltMv2B3R-360">
          <mxGeometry x="165.6875" y="240.18285714285713" width="30.125" height="32.457142857142856" as="geometry" />
        </mxCell>
        <mxCell id="LFbB79-AIs5pltMv2B3R-411" value="12" style="strokeWidth=1;shadow=0;dashed=0;align=center;html=1;shape=mxgraph.mockup.forms.rrect;rSize=0;strokeColor=#999999;fontColor=#999999;fillColor=#ddeeff;" vertex="1" parent="LFbB79-AIs5pltMv2B3R-360">
          <mxGeometry x="195.8125" y="240.18285714285713" width="30.125" height="32.457142857142856" as="geometry" />
        </mxCell>
        <mxCell id="LFbB79-AIs5pltMv2B3R-413" value="26" style="strokeWidth=1;shadow=0;dashed=0;align=center;html=1;shape=mxgraph.mockup.forms.rrect;rSize=0;strokeColor=#ff0000;fontColor=#ffffff;strokeWidth=2;fillColor=#008cff;" vertex="1" parent="LFbB79-AIs5pltMv2B3R-360">
          <mxGeometry x="135.5625" y="175.26857142857133" width="30.125" height="32.457142857142856" as="geometry" />
        </mxCell>
        <mxCell id="LFbB79-AIs5pltMv2B3R-414" value="24" style="strokeWidth=1;shadow=0;dashed=0;align=center;html=1;shape=mxgraph.mockup.forms.rrect;rSize=0;strokeColor=#999999;fontColor=#999999;" vertex="1" parent="LFbB79-AIs5pltMv2B3R-360">
          <mxGeometry x="75.30656403940887" y="175.26857142857133" width="30.125" height="32.457142857142856" as="geometry" />
        </mxCell>
        <mxCell id="LFbB79-AIs5pltMv2B3R-419" value="1" style="strokeWidth=1;shadow=0;dashed=0;align=center;html=1;shape=mxgraph.mockup.forms.rrect;rSize=0;strokeColor=#999999;fontColor=#999999;fillColor=#ddeeff;" vertex="1" parent="LFbB79-AIs5pltMv2B3R-360">
          <mxGeometry x="75.3075" y="207.72571428571428" width="30.125" height="32.457142857142856" as="geometry" />
        </mxCell>
        <UserObject label="HORÃRIOS" placeholders="1" name="Variable" id="LFbB79-AIs5pltMv2B3R-415">
          <mxCell style="text;html=1;strokeColor=none;fillColor=none;align=center;verticalAlign=middle;whiteSpace=wrap;overflow=hidden;" vertex="1" parent="1">
            <mxGeometry x="-837" y="-1039.25" width="80" height="20" as="geometry" />
          </mxCell>
        </UserObject>
        <UserObject label="MINHA AGENDA" placeholders="1" name="Variable" id="LFbB79-AIs5pltMv2B3R-416">
          <mxCell style="text;html=1;strokeColor=none;fillColor=none;align=center;verticalAlign=middle;whiteSpace=wrap;overflow=hidden;" vertex="1" parent="1">
            <mxGeometry x="-727" y="-1039.25" width="100" height="20" as="geometry" />
          </mxCell>
        </UserObject>
        <mxCell id="LFbB79-AIs5pltMv2B3R-417" value="" style="strokeWidth=1;html=1;shadow=0;dashed=0;shape=mxgraph.android.textfield;align=center;strokeColor=#33b5e5;pointerEvents=1" vertex="1" parent="1">
          <mxGeometry x="-734" y="-1128.5" width="114" height="113" as="geometry" />
        </mxCell>
        <UserObject label="Nenhuma atividade encontrada" placeholders="1" name="Variable" id="LFbB79-AIs5pltMv2B3R-418">
          <mxCell style="text;html=1;strokeColor=none;fillColor=none;align=center;verticalAlign=middle;whiteSpace=wrap;overflow=hidden;" vertex="1" parent="1">
            <mxGeometry x="-854" y="-657.5" width="242" height="20" as="geometry" />
          </mxCell>
        </UserObject>
        <mxCell id="LFbB79-AIs5pltMv2B3R-421" value="" style="html=1;shadow=0;dashed=0;align=center;verticalAlign=middle;shape=mxgraph.arrows2.arrow;dy=0.6;dx=40;notch=0;" vertex="1" parent="1">
          <mxGeometry x="-2151" y="-848" width="100" height="70" as="geometry" />
        </mxCell>
        <mxCell id="LFbB79-AIs5pltMv2B3R-422" value="" style="html=1;shadow=0;dashed=0;align=center;verticalAlign=middle;shape=mxgraph.arrows2.arrow;dy=0.6;dx=40;notch=0;" vertex="1" parent="1">
          <mxGeometry x="-1621" y="-848" width="100" height="70" as="geometry" />
        </mxCell>
        <mxCell id="LFbB79-AIs5pltMv2B3R-423" value="" style="html=1;shadow=0;dashed=0;align=center;verticalAlign=middle;shape=mxgraph.arrows2.arrow;dy=0.6;dx=40;notch=0;" vertex="1" parent="1">
          <mxGeometry x="-1078" y="-848" width="100" height="70" as="geometry" />
        </mxCell>
        <mxCell id="LFbB79-AIs5pltMv2B3R-424" value="" style="html=1;shadow=0;dashed=0;align=center;verticalAlign=middle;shape=mxgraph.arrows2.jumpInArrow;dy=15;dx=38;arrowHead=55;fillColor=#006600;" vertex="1" parent="1">
          <mxGeometry x="-2508" y="-827" width="100" height="100" as="geometry" />
        </mxCell>
        <mxCell id="LFbB79-AIs5pltMv2B3R-425" value="" style="html=1;shadow=0;dashed=0;align=center;verticalAlign=middle;shape=mxgraph.arrows2.jumpInArrow;dy=15;dx=38;arrowHead=55;fillColor=#006600;" vertex="1" parent="1">
          <mxGeometry x="-1993" y="-757.5" width="100" height="100" as="geometry" />
        </mxCell>
        <mxCell id="LFbB79-AIs5pltMv2B3R-426" value="" style="html=1;shadow=0;dashed=0;align=center;verticalAlign=middle;shape=mxgraph.arrows2.jumpInArrow;dy=15;dx=38;arrowHead=55;fillColor=#006600;" vertex="1" parent="1">
          <mxGeometry x="-1501" y="-714" width="100" height="100" as="geometry" />
        </mxCell>
      </root>
    </mxGraphModel>
  </diagram>
</mxfile>
